<?xml version="1.0" encoding="UTF-8" standalone="no"?>
<svg width="512px" height="512px" viewBox="0 0 512 512" version="1.1" xmlns="http://www.w3.org/2000/svg" xmlns:xlink="http://www.w3.org/1999/xlink" xmlns:sketch="http://www.bohemiancoding.com/sketch/ns">
    <!-- Generator: Sketch 3.4.4 (17249) - http://www.bohemiancoding.com/sketch -->
    <title>Group</title>
    <desc>Created with Sketch.</desc>
    <defs></defs>
    <g id="Page-1" stroke="none" stroke-width="1" fill="none" fill-rule="evenodd" sketch:type="MSPage">
        <g id="Group" sketch:type="MSLayerGroup">
            <path d="M256,512 C397.384896,512 512,397.384896 512,256 C512,114.615104 397.384896,0 256,0 C114.615104,0 0,114.615104 0,256 C0,397.384896 114.615104,512 256,512 Z" id="Oval-1" fill="#03A9F4" sketch:type="MSShapeGroup"></path>
            <path d="M98,297 L148,198" id="Line" stroke="#FFFFFF" stroke-width="10" stroke-linecap="square" sketch:type="MSShapeGroup"></path>
            <path d="M84.5,349 C99.6878306,349 112,336.687831 112,321.5 C112,306.312169 99.6878306,294 84.5,294 C69.3121694,294 57,306.312169 57,321.5 C57,336.687831 69.3121694,349 84.5,349 Z M85,336 C92.7319865,336 99,329.731986 99,322 C99,314.268014 92.7319865,308 85,308 C77.2680135,308 71,314.268014 71,322 C71,329.731986 77.2680135,336 85,336 Z" id="Oval-2" fill="#FFFFFF" sketch:type="MSShapeGroup"></path>
            <path d="M414.5,204 C429.687831,204 442,191.687831 442,176.5 C442,161.312169 429.687831,149 414.5,149 C399.312169,149 387,161.312169 387,176.5 C387,191.687831 399.312169,204 414.5,204 Z M415,191 C422.731986,191 429,184.731986 429,177 C429,169.268014 422.731986,163 415,163 C407.268014,163 401,169.268014 401,177 C401,184.731986 407.268014,191 415,191 Z" id="Oval-2" fill="#FFFFFF" sketch:type="MSShapeGroup"></path>
            <path d="M162,198 C176.911688,198 189,185.911688 189,171 C189,156.088312 176.911688,144 162,144 C147.088312,144 135,156.088312 135,171 C135,185.911688 147.088312,198 162,198 Z" id="Oval-6" fill="#9B9B9B" sketch:type="MSShapeGroup"></path>
            <circle id="Oval-6" stroke="#979797" stroke-width="1.5" fill="#FFFFFF" sketch:type="MSShapeGroup" cx="162.5" cy="170.5" r="13.5"></circle>
            <circle id="Oval-6" fill="#9B9B9B" sketch:type="MSShapeGroup" cx="330.5" cy="302.5" r="27.5"></circle>
            <circle id="Oval-6" fill="#9B9B9B" sketch:type="MSShapeGroup" cx="236.5" cy="275.5" r="27.5"></circle>
            <circle id="Oval-6" stroke="#979797" stroke-width="1.5" fill="#FFFFFF" sketch:type="MSShapeGroup" cx="236.5" cy="275.5" r="13.5"></circle>
            <circle id="Oval-6" stroke="#979797" stroke-width="1.5" fill="#FFFFFF" sketch:type="MSShapeGroup" cx="330.5" cy="302.5" r="13.5"></circle>
            <path d="M220,248 L181,196" id="Line" stroke="#FFFFFF" stroke-width="10" stroke-linecap="square" sketch:type="MSShapeGroup"></path>
            <path d="M300,294 L266,285" id="Line" stroke="#FFFFFF" stroke-width="10" stroke-linecap="square" sketch:type="MSShapeGroup"></path>
            <path d="M397,204 L347,276" id="Line" stroke="#FFFFFF" stroke-width="10" stroke-linecap="square" sketch:type="MSShapeGroup"></path>
        </g>
    </g>
</svg>